<svg width="108" height="18" viewBox="0 0 108 18" fill="none" xmlns="http://www.w3.org/2000/svg">
<path d="M0.299805 14.7549L1.04102 13.8955C1.91471 14.6976 2.77767 15.2812 3.62988 15.6465C4.4821 16.0046 5.46322 16.1836 6.57324 16.1836C7.71908 16.1836 8.65365 15.8936 9.37695 15.3135C10.1003 14.7334 10.4619 13.9886 10.4619 13.0791C10.4619 12.5062 10.3438 12.0299 10.1074 11.6504C9.87826 11.2708 9.44141 10.9271 8.79688 10.6191C8.15951 10.3112 7.26432 10.0391 6.11133 9.80273C4.25651 9.42318 2.92448 8.89681 2.11523 8.22363C1.31315 7.54329 0.912109 6.6123 0.912109 5.43066C0.912109 4.27767 1.38118 3.31445 2.31934 2.54102C3.25749 1.76758 4.43913 1.38086 5.86426 1.38086C6.9528 1.38086 7.90169 1.53125 8.71094 1.83203C9.52018 2.12565 10.3294 2.59831 11.1387 3.25L10.4189 4.15234C9.70996 3.53646 8.98307 3.09245 8.23828 2.82031C7.50065 2.54818 6.69499 2.41211 5.82129 2.41211C4.7041 2.41211 3.79818 2.69499 3.10352 3.26074C2.40885 3.81934 2.06152 4.52116 2.06152 5.36621C2.06152 5.94629 2.17611 6.42969 2.40527 6.81641C2.6416 7.19596 3.08919 7.55046 3.74805 7.87988C4.41406 8.20215 5.34505 8.48503 6.54102 8.72852C8.32422 9.09375 9.61328 9.61296 10.4082 10.2861C11.2103 10.9593 11.6113 11.8688 11.6113 13.0146C11.6113 14.2464 11.1315 15.2562 10.1719 16.0439C9.21224 16.8245 7.98763 17.2148 6.49805 17.2148C5.28776 17.2148 4.1849 17.0143 3.18945 16.6133C2.20117 16.2122 1.23796 15.5928 0.299805 14.7549ZM17.0344 17V0.94043H18.1086V17H17.0344ZM24.144 2.85254V1.38086H25.4761V2.85254H24.144ZM24.2729 17V5.78516H25.3471V17H24.2729ZM31.3503 17V5.78516H32.4353V7.7832C32.643 7.45378 32.8506 7.16732 33.0583 6.92383C33.266 6.68034 33.5167 6.44759 33.8103 6.22559C34.1111 5.99642 34.4584 5.82096 34.8523 5.69922C35.2533 5.57747 35.6937 5.5166 36.1736 5.5166C37.0902 5.5166 37.8637 5.74219 38.4939 6.19336C39.1312 6.63737 39.6182 7.21745 39.9548 7.93359C40.893 6.32227 42.2429 5.5166 44.0046 5.5166C45.3295 5.5166 46.3786 5.94271 47.1521 6.79492C47.9255 7.64714 48.3122 8.78223 48.3122 10.2002V17H47.238V10.3291C47.238 9.12598 46.9444 8.18783 46.3571 7.51465C45.7699 6.84147 44.9571 6.50488 43.9187 6.50488C42.9304 6.50488 42.0925 6.86296 41.405 7.5791C40.7175 8.29525 40.3738 9.25846 40.3738 10.4688V17H39.2995V10.2646C39.2995 9.10449 39.0023 8.18783 38.4079 7.51465C37.8207 6.84147 37.0258 6.50488 36.0232 6.50488C35.0206 6.50488 34.1719 6.89518 33.4773 7.67578C32.7826 8.44922 32.4353 9.40169 32.4353 10.5332V17H31.3503Z" fill="#212121"/>
<path d="M54.2832 17V1.5957H55.3574L61.5449 10.7051L67.7216 1.5957H68.8066V17H67.6572V3.62598L61.5664 12.4883H61.4804L55.3789 3.62598V17H54.2832ZM74.133 11.3926C74.133 10.612 74.2798 9.86361 74.5734 9.14746C74.8671 8.43132 75.2645 7.80827 75.7658 7.27832C76.2671 6.74121 76.8794 6.3151 77.6027 6C78.326 5.67773 79.0959 5.5166 79.9123 5.5166C80.9937 5.5166 81.9748 5.78516 82.8557 6.32227C83.7437 6.85221 84.4312 7.56836 84.9182 8.4707C85.4123 9.36589 85.6594 10.3398 85.6594 11.3926C85.6594 12.4382 85.4123 13.4085 84.9182 14.3037C84.424 15.1989 83.7294 15.9186 82.8342 16.4629C81.9462 17 80.9579 17.2686 79.8693 17.2686C79.0601 17.2686 78.2974 17.111 77.5813 16.7959C76.8651 16.4808 76.2564 16.0583 75.7551 15.5283C75.2538 14.9984 74.8563 14.3753 74.5627 13.6592C74.2762 12.9359 74.133 12.1803 74.133 11.3926ZM75.2932 11.3926C75.2932 12.7461 75.7372 13.8955 76.6252 14.8408C77.5204 15.779 78.6161 16.248 79.9123 16.248C80.7287 16.248 81.4878 16.0332 82.1897 15.6035C82.8915 15.1667 83.4501 14.5758 83.8654 13.8311C84.2808 13.0863 84.4885 12.2734 84.4885 11.3926C84.4885 10.0462 84.0373 8.90039 83.135 7.95508C82.2326 7.0026 81.1441 6.52637 79.8693 6.52637C79.0386 6.52637 78.2723 6.74479 77.5705 7.18164C76.8687 7.61133 76.3137 8.20215 75.9055 8.9541C75.4973 9.69889 75.2932 10.5117 75.2932 11.3926ZM90.728 17V5.78516H91.8129V7.7832C92.0206 7.45378 92.2283 7.16732 92.436 6.92383C92.6437 6.68034 92.8943 6.44759 93.1879 6.22559C93.4887 5.99642 93.836 5.82096 94.2299 5.69922C94.631 5.57747 95.0714 5.5166 95.5512 5.5166C96.4679 5.5166 97.2413 5.74219 97.8715 6.19336C98.5089 6.63737 98.9959 7.21745 99.3325 7.93359C100.271 6.32227 101.621 5.5166 103.382 5.5166C104.707 5.5166 105.756 5.94271 106.53 6.79492C107.303 7.64714 107.69 8.78223 107.69 10.2002V17H106.616V10.3291C106.616 9.12598 106.322 8.18783 105.735 7.51465C105.148 6.84147 104.335 6.50488 103.296 6.50488C102.308 6.50488 101.47 6.86296 100.783 7.5791C100.095 8.29525 99.7514 9.25846 99.7514 10.4688V17H98.6772V10.2646C98.6772 9.10449 98.38 8.18783 97.7856 7.51465C97.1983 6.84147 96.4034 6.50488 95.4008 6.50488C94.3982 6.50488 93.5496 6.89518 92.8549 7.67578C92.1603 8.44922 91.8129 9.40169 91.8129 10.5332V17H90.728Z" fill="#FC842D"/>
</svg>
